<?xml version="1.0" encoding="UTF-8"?>
<svg width="800" height="600" viewBox="0 0 800 600" xmlns="http://www.w3.org/2000/svg">
    <!-- Sky gradient -->
    <defs>
        <linearGradient id="skyGradient" x1="0%" y1="0%" x2="0%" y2="100%">
            <stop offset="0%" style="stop-color:#87CEEB;stop-opacity:1" />
            <stop offset="100%" style="stop-color:#B0E2FF;stop-opacity:1" />
        </linearGradient>
    </defs>
    
    <!-- Background -->
    <rect width="800" height="600" fill="url(#skyGradient)"/>
    
    <!-- Far mountains -->
    <path d="M0 400 L200 200 L400 350 L600 150 L800 300 L800 600 L0 600 Z" 
          fill="#2d5a27" opacity="0.5"/>
    
    <!-- Closer mountains -->
    <path d="M0 450 L250 250 L500 400 L750 200 L800 350 L800 600 L0 600 Z" 
          fill="#3a7035" opacity="0.7"/>
    
    <!-- Ground -->
    <rect x="0" y="500" width="800" height="100" fill="#355e31"/>
    
    <!-- Grass details -->
    <g fill="#4a8642">
        <rect x="50" y="490" width="4" height="15"/>
        <rect x="150" y="485" width="4" height="20"/>
        <rect x="250" y="488" width="4" height="17"/>
        <rect x="350" y="486" width="4" height="19"/>
        <rect x="450" y="487" width="4" height="18"/>
        <rect x="550" y="485" width="4" height="20"/>
        <rect x="650" y="489" width="4" height="16"/>
        <rect x="750" y="486" width="4" height="19"/>
    </g>
</svg> 