<?xml version="1.0" encoding="UTF-8"?>
<svg width="30" height="30" viewBox="0 0 30 30" xmlns="http://www.w3.org/2000/svg">
    <!-- Body -->
    <circle cx="15" cy="15" r="12" fill="#2c3e50"/>
    
    <!-- Eyes -->
    <circle cx="12" cy="12" r="2" fill="white"/>
    <circle cx="18" cy="12" r="2" fill="white"/>
    <circle cx="12" cy="12" r="1" fill="#2c3e50"/>
    <circle cx="18" cy="12" r="1" fill="#2c3e50"/>
    
    <!-- Mask -->
    <path d="M8 10 Q15 15 22 10" stroke="#e74c3c" stroke-width="2" fill="none"/>
    <path d="M8 10 L22 10" stroke="#e74c3c" stroke-width="2" fill="none"/>
    
    <!-- Cape -->
    <path d="M5 15 Q15 25 25 15" stroke="#e74c3c" stroke-width="2" fill="none"/>
    <path d="M5 15 Q15 20 25 15" stroke="#c0392b" stroke-width="1" fill="none"/>
    
    <!-- Cape Details -->
    <path d="M5 15 Q15 22 25 15" stroke="#c0392b" stroke-width="1" fill="none"/>
    <path d="M5 15 Q15 18 25 15" stroke="#c0392b" stroke-width="1" fill="none"/>
    
    <!-- S Symbol -->
    <path d="M13 12 Q15 10 17 12 Q15 14 13 12" stroke="#e74c3c" stroke-width="1.5" fill="none"/>
    
    <!-- Superhero Suit Details -->
    <path d="M8 15 L22 15" stroke="#e74c3c" stroke-width="1" fill="none"/>
    <path d="M10 17 L20 17" stroke="#e74c3c" stroke-width="1" fill="none"/>
    
    <!-- Beak -->
    <path d="M14 16 L16 16 L15 18 Z" fill="#e74c3c"/>
</svg> 